<?xml version="1.0" encoding="UTF-8"?><svg id="Layer_1" xmlns="http://www.w3.org/2000/svg" width="48" height="48" xmlns:xlink="http://www.w3.org/1999/xlink" viewBox="0 0 48 48"><defs><style>.cls-1{fill:none;}.cls-1,.cls-2,.cls-3{stroke-width:0px;}.cls-4{clip-path:url(#clippath);}.cls-2{fill:#1b6672;}.cls-3{fill:#c8dadd;}</style><clipPath id="clippath"><rect class="cls-1" y="-.06" width="48" height="48"/></clipPath></defs><g class="cls-4"><rect class="cls-2" y="-.06" width="48" height="48" rx="14" ry="14"/><rect class="cls-3" x="4" y=".94" width="40" height="46" rx="19" ry="19"/><path class="cls-2" d="m24-.06C10.75-.06,0,10.75,0,24.09c0,12.05,8.78,22.04,20.25,23.86v-16.87h-6.1v-6.98h6.1v-5.32c0-6.06,3.58-9.4,9.06-9.4,2.63,0,5.38.47,5.38.47v5.94h-3.03c-2.98,0-3.91,1.86-3.91,3.77v4.53h6.65l-1.06,6.98h-5.59v16.87c11.48-1.81,20.25-11.8,20.25-23.85C48,10.75,37.25-.06,24-.06Z"/></g></svg>