<?xml version="1.0" encoding="UTF-8"?><svg id="Layer_1" xmlns="http://www.w3.org/2000/svg" width="48" height="48" viewBox="0 0 48 48"><defs><style>.cls-1{fill:#1b6672;}.cls-1,.cls-2{stroke-width:0px;}.cls-2{fill:#c8dadd;}</style></defs><rect class="cls-2" x="4" y="1" width="40" height="46" rx="19" ry="19"/><path class="cls-1" d="m47.85,14.17c-.03-2.02-.4-4.01-1.12-5.9-.62-1.59-1.56-3.04-2.77-4.24-1.21-1.21-2.66-2.15-4.25-2.76-1.86-.7-3.84-1.08-5.83-1.12-2.56-.11-3.38-.15-9.89-.15s-7.34,0-9.89.15c-1.99.04-3.96.42-5.82,1.12-1.59.62-3.04,1.56-4.25,2.76-1.21,1.21-2.15,2.65-2.77,4.24-.7,1.86-1.08,3.83-1.12,5.81-.11,2.56-.15,3.37-.15,9.87s0,7.33.15,9.87c.04,1.99.42,3.95,1.12,5.82.62,1.59,1.56,3.04,2.77,4.24,1.21,1.21,2.66,2.15,4.25,2.76,1.86.73,3.83,1.13,5.82,1.2,2.57.11,3.38.15,9.89.15s7.34,0,9.89-.15c1.99-.04,3.96-.42,5.83-1.12,1.59-.62,3.04-1.56,4.25-2.77,1.21-1.21,2.15-2.65,2.77-4.24.7-1.86,1.08-3.83,1.12-5.82.11-2.56.15-3.37.15-9.87,0-6.5,0-7.32-.15-9.87Zm-23.86,22.08c-6.81,0-12.32-5.51-12.32-12.3s5.51-12.3,12.32-12.3c3.27,0,6.4,1.3,8.71,3.6,2.31,2.31,3.61,5.44,3.61,8.7s-1.3,6.39-3.61,8.7c-2.31,2.31-5.45,3.6-8.71,3.6Zm12.81-22.19c-.38,0-.75-.07-1.1-.22-.35-.14-.67-.36-.93-.62-.27-.27-.48-.58-.62-.93-.14-.35-.22-.72-.22-1.1,0-.38.07-.75.22-1.1.14-.35.36-.66.62-.93.27-.27.58-.48.93-.62.35-.14.72-.22,1.1-.22s.75.07,1.1.22c.35.14.66.36.93.62.27.27.48.58.62.93.14.35.22.72.22,1.1,0,1.59-1.28,2.87-2.87,2.87Z"/><path class="cls-1" d="m23.99,30.96c3.87,0,7.01-3.14,7.01-7.01s-3.14-7.01-7.01-7.01-7.01,3.14-7.01,7.01,3.14,7.01,7.01,7.01Z"/></svg>