<?xml version="1.0" encoding="UTF-8"?><svg id="Layer_1" xmlns="http://www.w3.org/2000/svg" width="48" height="48" viewBox="0 0 48 48"><defs><style>.cls-1{fill:#1b6672;}.cls-1,.cls-2{stroke-width:0px;}.cls-2{fill:#c8dadd;}</style></defs><rect class="cls-1" y="0" width="48" height="48" rx="14" ry="14"/><circle class="cls-1" cx="24" cy="24" r="24"/><path class="cls-2" d="m24,24c.78,0,1.45-.28,2-.83.56-.56.83-1.22.83-2,0-.78-.28-1.45-.83-2-.56-.56-1.22-.83-2-.83-.78,0-1.45.28-2,.83s-.83,1.22-.83,2c0,.78.28,1.45.83,2s1.22.83,2,.83Zm0,14.17c-3.8-3.23-6.64-6.24-8.52-9.01-1.88-2.77-2.82-5.34-2.82-7.7,0-3.54,1.14-6.36,3.42-8.46,2.28-2.1,4.92-3.15,7.91-3.15s5.64,1.05,7.92,3.15c2.28,2.1,3.42,4.92,3.42,8.46,0,2.36-.94,4.93-2.82,7.7-1.88,2.77-4.72,5.78-8.52,9.01Z"/></svg>