<?xml version="1.0" encoding="UTF-8"?><svg id="Layer_1" xmlns="http://www.w3.org/2000/svg" width="48" height="48" xmlns:xlink="http://www.w3.org/1999/xlink" viewBox="0 0 48 48"><defs><style>.cls-1{fill:none;}.cls-1,.cls-2,.cls-3{stroke-width:0px;}.cls-4{clip-path:url(#clippath);}.cls-2{fill:#1b6672;}.cls-3{fill:#c8dadd;}</style><clipPath id="clippath"><path class="cls-1" d="m24,0h0c13.25,0,24,10.75,24,24h0c0,13.25-10.75,24-24,24h0C10.75,48,0,37.25,0,24h0C0,10.75,10.75,0,24,0Z"/></clipPath></defs><ellipse class="cls-2" cx="23.5" cy="24" rx="23.5" ry="24"/><rect class="cls-2" width="48" height="48" rx="14" ry="14"/><g class="cls-4"><path class="cls-3" d="m24,0h0c13.25,0,24,10.75,24,24h0c0,13.25-10.75,24-24,24h0C10.75,48,0,37.25,0,24h0C0,10.75,10.75,0,24,0Z"/><path class="cls-2" d="m20.65,29.03h2.1v9.57h-1.68s0-1.24,0-1.24c-.45.97-2.26,1.75-3.2,1.07-.51-.36-.49-1-.54-1.54-.03-.31,0-.99,0-1.91v-5.95s2.08,0,2.08,0v6.05c.01.83-.03,1.31.02,1.46.3.91,1.07.42,1.23-.05.06-.16,0-.59,0-1.46v-6.01Zm8.8,1.88v5c0,2.42-1.38,3.8-3.58,1.78l-.16.8-1.72.03v-12.83s2.1,0,2.1,0v3.72c1.93-1.54,3.35-.4,3.36,1.5Zm-1.55-.25c0-.41-.41-.75-.92-.75s-.91.34-.91.75v5.61c0,.41.41.75.91.75s.92-.34.92-.75v-5.61Zm-4.27-12.24c.51,0,.93-.46.93-1.02v-5.29c0-.56-.42-1.02-.93-1.02s-.93.46-.93,1.02v5.29c0,.56.42,1.02.93,1.02Zm-5.91,8.93v-1.66h-6.71s0,1.63,0,1.63h2.09v11.29h2.1v-11.25s2.51,0,2.51,0h0ZM48,0v48H0V0h48Zm-20.29,16.53c0,.85.02,1.42.04,1.71.03.29.09.56.2.83.11.26.28.47.5.64.23.16.51.24.86.24.3,0,.57-.08.8-.25.23-.17.43-.42.59-.75l-.04.82h2.34v-9.94h-1.84v7.74c0,.42-.34.76-.77.76s-.77-.34-.77-.76v-7.74h-1.92v6.71h0Zm-6.6-5.31c-.16.54-.24,1.28-.24,2.23v2.63c0,.87.04,1.53.13,1.96.09.43.23.81.44,1.11.2.31.49.54.86.69.37.16.82.23,1.35.23.48,0,.9-.09,1.27-.27.36-.18.67-.46.9-.83.24-.38.39-.78.46-1.21.07-.43.11-1.11.11-2.03v-2.51c0-.73-.04-1.27-.12-1.63-.08-.35-.22-.7-.43-1.03-.21-.34-.51-.6-.9-.81-.39-.21-.85-.31-1.39-.31-.64,0-1.17.16-1.59.49-.41.32-.7.75-.86,1.29Zm-7.65-5.31l2.77,6.55v7.62h2.21v-7.62s2.61-6.53,2.61-6.53h-2.41l-1.39,4.85-1.41-4.87h-2.39Zm25.63,20.86c0-2.56-2.22-4.66-4.94-4.66H13.85c-2.72,0-4.94,2.09-4.94,4.66v10.67c0,2.56,2.22,4.66,4.94,4.66h20.29c2.72,0,4.94-2.09,4.94-4.66v-10.67Zm-3.06,8.48c.72,4.26-5.3,4.96-5.3,0v-2.98c0-.9.09-1.6.27-2.11.18-.52.48-.9.88-1.18,1.27-.92,3.78-.64,4.04,1.16.08.57.11,1.56.11,2.55v1.35h-3.6v2.31c0,.47.39.85.86.85h.31c.47,0,.86-.38.86-.85v-.88c0-.08,0-.15,0-.21h1.57Zm-3.58-2.86h1.99l.02-1.16c0-.51-.42-.93-.94-.93h-.12c-.52,0-.94.42-.94.93v1.16Z"/></g></svg>